# xmcd CD database file
#
# Track frame offsets:
#	150
#	13737
#	27042
#	40752
#	54467
#	66547
#	79240
#	93522
#	107920
#	120757
#	134025
#	148482
#	161447
#	175670
#	190190
#	206460
#	219020
#	232930
#	244465
#	257077
#
# Disc length: 3592 seconds
#
# Revision: 0
# Processed by: cddbd v1.4PL0 Copyright (c) Steve Scherf et al.
# Submitted via: CDex 1.50
#
DISCID=190e0614
DTITLE=Oscar Peterson - Oscar's Boogie
DYEAR=1945
DGENRE=Jazz
TTITLE0=My Blue Heaven
TTITLE1=Louise
TTITLE2=The Sheik Of Araby
TTITLE3=I Got Rhythm
TTITLE4="C" Jam Blues
TTITLE5=Humoresque
TTITLE6=If I Could Be With You One Hour Tonight
TTITLE7=Flying Home
TTITLE8=China Boy
TTITLE9=Time On My Hands
TTITLE10=In A Little Spanish Town
TTITLE11=Blue Moon
TTITLE12=Sweet Lorraine
TTITLE13=The Honeydripper
TTITLE14=East Of The Sun (And West Of The Moon)
TTITLE15=Runnin' Wild
TTITLE16=Stairway To The Stars
TTITLE17=Smiles
TTITLE18=Poor Butterfly
TTITLE19=Oscar's Boogie
EXTD=YEAR: 1945
EXTT0=
EXTT1=
EXTT2=
EXTT3=
EXTT4=
EXTT5=
EXTT6=
EXTT7=
EXTT8=
EXTT9=
EXTT10=
EXTT11=
EXTT12=
EXTT13=
EXTT14=
EXTT15=
EXTT16=
EXTT17=
EXTT18=
EXTT19=
PLAYORDER=
